<svg height="480pt" viewBox="0 0 480.00541 480" width="480pt" xmlns="http://www.w3.org/2000/svg"><path d="m280.003906 71.808594h-80c-2.996094 0-5.742187-1.675782-7.113281-4.339844s-1.140625-5.871094.601563-8.308594l40-56c1.570312-1.996094 3.972656-3.15624975 6.511718-3.15624975 2.539063 0 4.9375 1.16015575 6.511719 3.15624975l40 56c1.738281 2.4375 1.972656 5.644532.601563 8.308594-1.371094 2.664062-4.117188 4.339844-7.113282 4.339844zm-64.457031-16h48.910156l-24.453125-34.234375zm0 0" fill="#aabece"/><path d="m479.25 468.414062-41.191406-88-37.449219-80-29.949219-64-37.457031-80-29.953125-64c-1.316406-2.8125-4.140625-4.609374-7.246094-4.605468h-112c-3.105468-.003906-5.933594 1.792968-7.25 4.605468l-29.953125 64-37.453125 80-29.953125 64-37.449219 80-41.191406 88c-1.160156 2.480469-.972656 5.378907.496094 7.6875 1.46875 2.308594 4.015625 3.707032 6.753906 3.707032h464c2.734375 0 5.28125-1.398438 6.75-3.707032 1.46875-2.308593 1.65625-5.207031.496094-7.6875zm-197.121094-300.605468 16.335938 64h-27.941406l-6.816407-64zm-58.253906 80h32.253906l5.105469 48h-42.464844zm23.742188-80 6.808593 64h-28.824219l6.808594-64zm-38.132813 64h-27.945313l16.335938-64h18.398438zm-32 16h30.335937l-5.113281 48h-37.511719zm39.613281 64h45.871094l6.800781 64h-59.503906zm60.265625-16-5.113281-48h30.335938l12.257812 48zm-11.578125-192 12.257813 48h-16l-5.113281-48zm-19.871094 48h-11.824218l5.113281-48h1.597656zm-27.917968 0h-16l12.253906-48h8.890625zm-56.882813 160h39.867188l-6.808594 64h-49.371094zm47.449219 80h62.878906l7.664063 72h-78.207031zm77.273438-16-6.808594-64h39.863281l16.3125 64zm65.910156 0-16.335938-64h52.863282l29.960937 64zm-20.421875-80-12.257813-48h39.257813l22.476562 48zm-16.335938-64-16.34375-64h22.222657l29.96875 64zm-24.074219-128 22.464844 48h-18.824218l-12.246094-48zm-101.824218 0h8.609375l-12.25 48h-18.824219zm-29.949219 64h22.222656l-16.34375 64h-35.847656zm-37.457031 80h39.253906l-12.253906 48h-49.480469zm-29.953125 64h52.863281l-16.335938 64h-66.488281zm-37.449219 80h69.890625l-18.402344 72h-85.191406zm86.402344 0h51.78125l-7.664063 72h-62.492187zm154.519531 72-7.65625-72h51.785156l18.398438 72zm79.023437 0-18.398437-72h69.886719l33.703125 72zm0 0" fill="#aabece"/><g fill="#2d75bb"><path d="m185.371094 381.632812-2.640625 9.445313-9.449219 2.640625c-11.707031 2.015625-23.625-2.164062-31.503906-11.054688l-5.597656-5.601562c-8.890626-7.878906-13.074219-19.796875-11.058594-31.503906l2.640625-9.449219 9.449219-2.636719c11.707031-2.019531 23.621093 2.160156 31.503906 11.046875l5.601562 5.597657c8.890625 7.882812 13.074219 19.804687 11.054688 31.515624zm0 0"/><path d="m182.730469 391.078125 16.726562 49.273437 32.546875-32.542968zm0 0"/><path d="m185.539062 181.464844-2.535156 9.34375-9.34375 2.535156c-11.675781 1.882812-23.503906-2.34375-31.335937-11.199219l-5.601563-5.601562c-8.859375-7.835938-13.085937-19.660157-11.199218-31.335938l2.480468-9.398437 9.34375-2.539063c11.671875-1.882812 23.5 2.34375 31.335938 11.203125l5.597656 5.597656c8.898438 7.835938 13.148438 19.691407 11.257812 31.394532zm0 0"/><path d="m183.003906 190.808594 17 49 32-32zm0 0"/><path d="m361.539062 317.464844-2.535156 9.34375-9.34375 2.535156c-11.675781 1.882812-23.503906-2.34375-31.335937-11.199219l-5.601563-5.601562c-8.859375-7.835938-13.085937-19.660157-11.199218-31.335938l2.480468-9.398437 9.34375-2.539063c11.671875-1.882812 23.5 2.34375 31.335938 11.203125l5.597656 5.597656c8.898438 7.835938 13.148438 19.691407 11.257812 31.394532zm0 0"/><path d="m359.003906 326.808594 17 49 32-32zm0 0"/></g><path d="m192.003906 63.808594h96c8.835938 0 16 7.160156 16 16 0 8.835937-7.164062 16-16 16h-96c-8.835937 0-16-7.164063-16-16 0-8.839844 7.164063-16 16-16zm0 0" fill="#5a6470"/></svg>