<svg id="Layer_1" enable-background="new 0 0 512 512" height="512" viewBox="0 0 512 512" width="512" xmlns="http://www.w3.org/2000/svg" xmlns:xlink="http://www.w3.org/1999/xlink"><linearGradient id="SVGID_1_" gradientUnits="userSpaceOnUse" x1="0" x2="512" y1="256" y2="256"><stop offset="0" stop-color="#81d9e7"/><stop offset="1" stop-color="#b5e9f1"/></linearGradient><linearGradient id="lg1"><stop offset="0" stop-color="#00c140"/><stop offset="1" stop-color="#29ce69"/></linearGradient><linearGradient id="SVGID_2_" gradientUnits="userSpaceOnUse" x1="257.981" x2="255.218" xlink:href="#lg1" y1="198.001" y2="420.438"/><linearGradient id="SVGID_3_" gradientUnits="userSpaceOnUse" x1="111.208" x2="106.334" xlink:href="#lg1" y1="286.368" y2="531.697"/><linearGradient id="SVGID_4_" gradientUnits="userSpaceOnUse" x1="403.517" x2="398.643" xlink:href="#lg1" y1="292.175" y2="537.504"/><path d="m472.735 472.756h-433.47c-21.686 0-39.265-17.579-39.265-39.265v-326.79c0-24.61 16.13-46.282 39.686-53.408 47.665-14.417 131.809-28.099 216.314 15.183 89.299 45.737 178.194 27.865 224.067 12.732 15.736-5.191 31.933 6.568 31.933 23.139v329.144c0 21.686-17.58 39.265-39.265 39.265z" fill="url(#SVGID_1_)"/><path d="m160.216 346.325s-16.157 5.943-10.453 22.259c1.829 5.231 3.111 11.249 3.237 16.846h-35.5v87.326h47.388c8.457-12.617 24.833-37.05 24.833-76.605 0-15.002-2.264-27.692-5.537-38.355-3.101-10.102-14.16-15.405-23.968-11.471z" fill="#3ccbde"/><g fill="#e9fdff"><circle cx="197.837" cy="189.031" r="35.892"/><circle cx="367.727" cy="181.993" r="22.45"/><circle cx="307.261" cy="357.284" r="26.035"/></g><path d="m236.743 472.756c0-9.389-2.015-12.396-7.402-20.431-7.277-10.856-18.274-27.261-18.274-56.174s10.997-45.318 18.274-56.173c5.387-8.036 7.402-11.042 7.402-20.431 0-9.388-2.015-12.395-7.402-20.429-7.277-10.855-18.274-27.259-18.274-56.172s10.997-45.317 18.275-56.172c5.386-8.034 7.402-11.04 7.402-20.427 0-17.725 14.37-32.095 32.095-32.095 17.726 0 32.095 14.37 32.095 32.095 0 28.913-10.997 45.317-18.275 56.172-5.386 8.034-7.402 11.041-7.402 20.427 0 9.388 2.015 12.394 7.402 20.429 7.277 10.855 18.275 27.26 18.275 56.173 0 28.914-10.997 45.318-18.274 56.174-5.387 8.036-7.402 11.042-7.402 20.431s2.015 12.396 7.402 20.431c7.277 10.856 18.274 27.261 18.274 56.174h-64.191z" fill="url(#SVGID_2_)"/><path d="m64.854 472.756c0-28.913 10.997-45.318 18.274-56.173 5.387-8.036 7.402-11.042 7.402-20.431 0-9.388-2.015-12.395-7.402-20.429-7.277-10.855-18.274-27.26-18.274-56.173s10.997-45.317 18.274-56.172c5.386-8.034 7.402-11.041 7.402-20.427 0-17.725 14.37-32.095 32.095-32.095 17.726 0 32.095 14.37 32.095 32.095 0 28.913-10.997 45.317-18.275 56.172-5.386 8.034-7.402 11.041-7.402 20.427 0 9.388 2.015 12.394 7.402 20.429 7.277 10.855 18.275 27.259 18.275 56.173s-10.997 45.318-18.274 56.174c-5.387 8.036-7.402 11.042-7.402 20.431h-64.19z" fill="url(#SVGID_3_)"/><path d="m357.279 472.756c0-28.913 10.997-45.318 18.274-56.173 5.387-8.036 7.402-11.042 7.402-20.431 0-9.388-2.015-12.395-7.402-20.429-7.277-10.855-18.274-27.26-18.274-56.173s10.997-45.317 18.275-56.172c5.386-8.034 7.402-11.041 7.402-20.427 0-17.725 14.37-32.095 32.095-32.095s32.095 14.37 32.095 32.095c0 28.913-10.997 45.317-18.275 56.172-5.386 8.034-7.402 11.041-7.402 20.427 0 9.388 2.015 12.394 7.402 20.429 7.277 10.855 18.275 27.259 18.275 56.173s-10.997 45.318-18.274 56.174c-5.387 8.036-7.402 11.042-7.402 20.431h-64.191z" fill="url(#SVGID_4_)"/><path d="m395.644 362.249c-6.644-9.912-14.175-21.146-14.175-42.699 0-21.555 7.532-32.789 14.177-42.702 3.076-4.587 9.288-5.812 13.875-2.737 4.587 3.076 5.813 9.288 2.737 13.875-6.028 8.991-10.79 16.093-10.79 31.564 0 15.47 4.761 22.572 10.788 31.563 3.075 4.588 1.759 10.668-2.738 13.875-6.583 4.693-11.944.139-13.874-2.739z" fill="#b9ecc2"/><circle cx="89.018" cy="128.246" fill="#e9fdff" r="17.667"/><circle cx="420.144" cy="248.932" fill="#b9ecc2" r="10"/></svg>